{
	"patcher" : 	{
		"fileversion" : 1,
		"appversion" : 		{
			"major" : 8,
			"minor" : 0,
			"revision" : 0,
			"architecture" : "x64",
			"modernui" : 1
		}
,
		"classnamespace" : "box",
		"rect" : [ -252.0, -1188.0, 326.0, 378.0 ],
		"bglocked" : 0,
		"openinpresentation" : 0,
		"default_fontsize" : 12.0,
		"default_fontface" : 0,
		"default_fontname" : "Arial",
		"gridonopen" : 1,
		"gridsize" : [ 15.0, 15.0 ],
		"gridsnaponopen" : 1,
		"objectsnaponopen" : 1,
		"statusbarvisible" : 2,
		"toolbarvisible" : 1,
		"lefttoolbarpinned" : 0,
		"toptoolbarpinned" : 0,
		"righttoolbarpinned" : 0,
		"bottomtoolbarpinned" : 0,
		"toolbars_unpinned_last_save" : 0,
		"tallnewobj" : 0,
		"boxanimatetime" : 200,
		"enablehscroll" : 1,
		"enablevscroll" : 1,
		"devicewidth" : 0.0,
		"description" : "",
		"digest" : "",
		"tags" : "",
		"style" : "",
		"subpatcher_template" : "",
		"boxes" : [ 			{
				"box" : 				{
					"color" : [ 0.862745, 0.741176, 0.137255, 1.0 ],
					"fontsize" : 14.0,
					"id" : "obj-3",
					"maxclass" : "newobj",
					"numinlets" : 1,
					"numoutlets" : 1,
					"outlettype" : [ "signal" ],
					"patcher" : 					{
						"fileversion" : 1,
						"appversion" : 						{
							"major" : 8,
							"minor" : 0,
							"revision" : 0,
							"architecture" : "x64",
							"modernui" : 1
						}
,
						"classnamespace" : "dsp.gen",
						"rect" : [ 245.0, -1187.0, 967.0, 892.0 ],
						"bglocked" : 0,
						"openinpresentation" : 0,
						"default_fontsize" : 12.0,
						"default_fontface" : 0,
						"default_fontname" : "Arial",
						"gridonopen" : 1,
						"gridsize" : [ 15.0, 15.0 ],
						"gridsnaponopen" : 1,
						"objectsnaponopen" : 1,
						"statusbarvisible" : 2,
						"toolbarvisible" : 1,
						"lefttoolbarpinned" : 0,
						"toptoolbarpinned" : 0,
						"righttoolbarpinned" : 0,
						"bottomtoolbarpinned" : 0,
						"toolbars_unpinned_last_save" : 0,
						"tallnewobj" : 0,
						"boxanimatetime" : 200,
						"enablehscroll" : 1,
						"enablevscroll" : 1,
						"devicewidth" : 0.0,
						"description" : "",
						"digest" : "",
						"tags" : "",
						"style" : "",
						"subpatcher_template" : "",
						"boxes" : [ 							{
								"box" : 								{
									"code" : "Param bufSize(512);\r\n\r\nDelay delayBuf(bufSize);\r\n\r\nData XX(bufSize+1, 1);\r\nData REX(bufSize/2+1, 1);\r\nData IMX(bufSize/2+1, 1);\r\n\r\nmCount, mTrg, mNum = counter(1, 0, bufSize);\r\n\r\ndelayBuf.write(in1);\r\n\r\nif(mCount == 0){\r\n\t//DFT\r\n\t//reset REX and IMX\r\n\tfor(i=0; i<bufSize/2+1; i+=1){\r\n\t\tpoke(REX, 0, i, 0);\r\n\t\tpoke(IMX, 0, i, 0);\r\n\t}\r\n\t//set REX and IMX\r\n\tfor(i=0; i<bufSize/2+1; i+=1){\r\n\t\tfor(j=0; j<bufSize; j+=1){\r\n\t\t\tpoke(REX, peek(REX, i, 0)+delayBuf.read(j)*cos(TWOPI*i*j/bufSize), i, 0);\r\n\t\t\tpoke(IMX, peek(IMX, i, 0)-delayBuf.read(j)*sin(TWOPI*i*j/bufSize), i, 0);\t\t\r\n\t\t}\r\n\t}\r\n\t\r\n\t//Inverse DFT\r\n\t//set an amplitude\r\n\tfor(i=0; i<bufSize/2+1; i+=1){\r\n\t\tif(i==0 || i==bufSize/2){\r\n\t\t\tpoke(REX, peek(REX, i, 0)/bufSize, i, 0);\r\n\t\t\t//poke(IMX, peek(IMX, i, 0)/bufSize, i, 0);\r\n\t\t}\r\n\t\telse{\r\n\t\t\tpoke(REX, peek(REX, i, 0)/(bufSize/2), i, 0);\r\n\t\t\tpoke(IMX, peek(IMX, i, 0)/(bufSize/2), i, 0);\r\n\t\t}\r\n\t}\r\n\t\r\n\t//reset XX\r\n\tfor(i=0; i<bufSize+1; i+=1){\r\n\t\tpoke(XX, 0, i, 0);\r\n\t}\r\n\t//set XX\r\n\tfor(i=0; i<bufSize/2+1; i+=1){\r\n\t\tfor(j=0; j<bufSize; j+=1){\r\n\t\t\tpoke(XX, peek(XX, j, 0)+peek(REX, i, 0)*cos(TWOPI*i*j/bufSize)+peek(IMX, i, 0)*sin(TWOPI*i*j/bufSize), j, 0);\r\n\t\t}\r\n\t}\r\n\tpoke(XX, peek(XX, bufSize-1, 0), bufSize);\r\n}\r\n\r\nout1 = peek(XX, mCount+1, 0);  ",
									"fontface" : 0,
									"fontname" : "Menlo",
									"fontsize" : 12.0,
									"id" : "obj-5",
									"maxclass" : "codebox",
									"numinlets" : 1,
									"numoutlets" : 1,
									"outlettype" : [ "" ],
									"patching_rect" : [ 16.0, 35.0, 932.0, 815.0 ]
								}

							}
, 							{
								"box" : 								{
									"id" : "obj-1",
									"maxclass" : "newobj",
									"numinlets" : 0,
									"numoutlets" : 1,
									"outlettype" : [ "" ],
									"patching_rect" : [ 16.0, 6.0, 28.0, 22.0 ],
									"text" : "in 1"
								}

							}
, 							{
								"box" : 								{
									"id" : "obj-4",
									"maxclass" : "newobj",
									"numinlets" : 1,
									"numoutlets" : 0,
									"patching_rect" : [ 16.0, 855.0, 35.0, 22.0 ],
									"text" : "out 1"
								}

							}
 ],
						"lines" : [ 							{
								"patchline" : 								{
									"destination" : [ "obj-5", 0 ],
									"source" : [ "obj-1", 0 ]
								}

							}
, 							{
								"patchline" : 								{
									"destination" : [ "obj-4", 0 ],
									"source" : [ "obj-5", 0 ]
								}

							}
 ]
					}
,
					"patching_rect" : [ 32.5, 91.0, 42.0, 24.0 ],
					"presentation_linecount" : 2,
					"text" : "gen~"
				}

			}
, 			{
				"box" : 				{
					"id" : "obj-12",
					"lastchannelcount" : 0,
					"maxclass" : "live.gain~",
					"numinlets" : 2,
					"numoutlets" : 5,
					"outlettype" : [ "signal", "signal", "", "float", "list" ],
					"parameter_enable" : 1,
					"patching_rect" : [ 33.0, 130.0, 48.0, 136.0 ],
					"saved_attribute_attributes" : 					{
						"valueof" : 						{
							"parameter_shortname" : "live.gain~",
							"parameter_type" : 0,
							"parameter_unitstyle" : 4,
							"parameter_mmin" : -70.0,
							"parameter_longname" : "live.gain~",
							"parameter_mmax" : 6.0,
							"parameter_initial" : [ 0.0 ]
						}

					}
,
					"showname" : 0,
					"varname" : "live.gain~"
				}

			}
, 			{
				"box" : 				{
					"id" : "obj-11",
					"maxclass" : "ezdac~",
					"numinlets" : 2,
					"numoutlets" : 0,
					"patching_rect" : [ 32.5, 300.0, 45.0, 45.0 ]
				}

			}
, 			{
				"box" : 				{
					"format" : 6,
					"id" : "obj-7",
					"maxclass" : "flonum",
					"numinlets" : 1,
					"numoutlets" : 2,
					"outlettype" : [ "", "bang" ],
					"parameter_enable" : 1,
					"patching_rect" : [ 32.5, 18.0, 68.0, 22.0 ],
					"saved_attribute_attributes" : 					{
						"valueof" : 						{
							"parameter_shortname" : "number",
							"parameter_type" : 3,
							"parameter_longname" : "number",
							"parameter_invisible" : 1
						}

					}
,
					"varname" : "number"
				}

			}
, 			{
				"box" : 				{
					"id" : "obj-1",
					"maxclass" : "newobj",
					"numinlets" : 2,
					"numoutlets" : 1,
					"outlettype" : [ "signal" ],
					"patching_rect" : [ 32.5, 56.0, 43.0, 22.0 ],
					"text" : "cycle~"
				}

			}
, 			{
				"box" : 				{
					"bufsize" : 79,
					"calccount" : 7,
					"id" : "obj-4",
					"maxclass" : "scope~",
					"numinlets" : 2,
					"numoutlets" : 0,
					"patching_rect" : [ 97.0, 130.0, 212.0, 171.0 ]
				}

			}
 ],
		"lines" : [ 			{
				"patchline" : 				{
					"destination" : [ "obj-3", 0 ],
					"source" : [ "obj-1", 0 ]
				}

			}
, 			{
				"patchline" : 				{
					"destination" : [ "obj-11", 1 ],
					"order" : 0,
					"source" : [ "obj-12", 0 ]
				}

			}
, 			{
				"patchline" : 				{
					"destination" : [ "obj-11", 0 ],
					"order" : 1,
					"source" : [ "obj-12", 0 ]
				}

			}
, 			{
				"patchline" : 				{
					"destination" : [ "obj-12", 1 ],
					"order" : 1,
					"source" : [ "obj-3", 0 ]
				}

			}
, 			{
				"patchline" : 				{
					"destination" : [ "obj-12", 0 ],
					"order" : 2,
					"source" : [ "obj-3", 0 ]
				}

			}
, 			{
				"patchline" : 				{
					"destination" : [ "obj-4", 0 ],
					"order" : 0,
					"source" : [ "obj-3", 0 ]
				}

			}
, 			{
				"patchline" : 				{
					"destination" : [ "obj-1", 0 ],
					"source" : [ "obj-7", 0 ]
				}

			}
 ],
		"parameters" : 		{
			"obj-7" : [ "number", "number", 0 ],
			"obj-12" : [ "live.gain~", "live.gain~", 0 ],
			"parameterbanks" : 			{

			}

		}
,
		"dependency_cache" : [  ],
		"autosave" : 0
	}

}
